<?xml version="1.0" encoding="utf-8"?>
<!-- Generated by IcoMoon.io -->
<!DOCTYPE svg PUBLIC "-//W3C//DTD SVG 1.1//EN" "http://www.w3.org/Graphics/SVG/1.1/DTD/svg11.dtd">
<svg version="1.1" xmlns="http://www.w3.org/2000/svg" xmlns:xlink="http://www.w3.org/1999/xlink" width="75" height="75" viewBox="0 0 75 75">
	<path d="M19.297 55.618c0 1.981 1.677 2.972 5.029 2.972 2.934 0 4.401-1.028 4.401-3.086 0-1.944-1.6-2.915-4.801-2.915-3.087-0-4.63 1.009-4.63 3.028zM62.501 0h-50c-6.876 0-12.502 5.626-12.502 12.502v49.997c0 6.88 5.626 12.501 12.502 12.501h50c6.875 0 12.499-5.621 12.499-12.502v-49.997c0-6.876-5.624-12.502-12.499-12.502zM34.843 29.955c-0.533 0.191-1.296 0.4-2.286 0.629 0.305 0.876 0.457 1.696 0.457 2.458 0 2.438-0.734 4.563-2.2 6.373-1.467 1.81-3.363 2.886-5.687 3.229-1.524 0.229-2.286 1.048-2.286 2.458 0 0.495 0.247 0.991 0.743 1.486 0.648 0.724 1.6 1.182 2.858 1.372 5.448 0.838 8.173 3.105 8.173 6.801 0 5.906-3.525 8.86-10.573 8.86-2.896 0-5.278-0.515-7.144-1.543-2.363-1.296-3.543-3.334-3.543-6.116 0-3.201 1.772-5.392 5.315-6.573v-0.114c-1.295-0.8-1.943-2.019-1.943-3.658 0-2.134 0.61-3.468 1.829-4.001v-0.114c-1.219-0.419-2.305-1.372-3.258-2.858-1.067-1.6-1.6-3.315-1.6-5.144 0-2.744 0.972-5.030 2.914-6.858 1.867-1.715 4.096-2.572 6.687-2.572 1.867 0 3.6 0.457 5.201 1.371 1.829 0 3.944-0.457 6.345-1.371l-0.001 5.886zM44.105 49.731h-6.459c0.076-0.762 0.114-2.057 0.114-3.887v-17.775c0-1.791-0.038-3.030-0.114-3.715h6.459c-0.076 0.724-0.114 1.924-0.114 3.601v17.546c0 1.943 0.038 3.353 0.114 4.229zM43.676 18.639c-0.781 0.838-1.705 1.257-2.772 1.257-1.105 0-2.048-0.419-2.829-1.257-0.781-0.839-1.172-1.829-1.172-2.972 0-1.182 0.391-2.191 1.172-3.030 0.781-0.838 1.724-1.257 2.829-1.257 1.067 0 1.991 0.419 2.772 1.257 0.781 0.839 1.172 1.848 1.172 3.030 0 1.143-0.391 2.133-1.172 2.972zM61.647 48.988c-1.41 0.762-3.106 1.143-5.087 1.143-2.781 0-4.706-0.99-5.772-2.972-0.801-1.486-1.2-3.829-1.2-7.030v-10.231h0.057v-0.114l-0.857-0.057c-0.495 0-1.143 0.057-1.943 0.172v-5.544h2.8v-2.229c0-1.067-0.057-1.925-0.171-2.572h6.63c-0.114 0.724-0.171 1.543-0.171 2.457v2.344h4.972v5.544c-0.19 0-0.543-0.019-1.057-0.057-0.514-0.038-1-0.058-1.457-0.058h-2.458v10.631c0 2.554 0.839 3.83 2.515 3.83 1.181 0 2.248-0.324 3.201-0.971v5.715zM23.527 29.327c-2.401 0-3.601 1.41-3.601 4.229 0 2.63 1.2 3.944 3.601 3.944 2.324 0 3.486-1.334 3.486-4.001 0-1.105-0.267-2.058-0.8-2.858-0.648-0.876-1.544-1.314-2.687-1.314z" fill="#007c88" />
</svg>
