<?xml version="1.0" encoding="utf-8"?>
<!-- Generated by IcoMoon.io -->
<!DOCTYPE svg PUBLIC "-//W3C//DTD SVG 1.1//EN" "http://www.w3.org/Graphics/SVG/1.1/DTD/svg11.dtd">
<svg version="1.1" xmlns="http://www.w3.org/2000/svg" xmlns:xlink="http://www.w3.org/1999/xlink" width="75" height="75" viewBox="0 0 75 75">
	<path d="M62.402 0h-49.805c-6.929 0-12.598 5.669-12.598 12.598v49.805c0 6.929 5.669 12.598 12.598 12.598h49.805c6.929 0 12.598-5.669 12.598-12.598v-49.805c0-6.929-5.669-12.598-12.598-12.598zM28.125 60.938h-9.375v-32.813h9.375v32.813zM23.438 23.438c-2.589 0-4.688-2.099-4.688-4.688s2.099-4.688 4.688-4.688 4.688 2.099 4.688 4.688-2.099 4.688-4.688 4.688zM60.938 60.938h-9.375v-18.75c0-2.589-2.099-4.688-4.688-4.688s-4.688 2.099-4.688 4.688v18.75h-9.375v-32.813h9.375v5.821c1.933-2.656 4.889-5.821 8.203-5.821 5.825 0 10.547 5.247 10.547 11.719v21.094z" fill="#007c88" />
</svg>
