<?xml version="1.0" encoding="utf-8"?>
<!-- Generated by IcoMoon.io -->
<!DOCTYPE svg PUBLIC "-//W3C//DTD SVG 1.1//EN" "http://www.w3.org/Graphics/SVG/1.1/DTD/svg11.dtd">
<svg version="1.1" xmlns="http://www.w3.org/2000/svg" xmlns:xlink="http://www.w3.org/1999/xlink" width="75" height="75" viewBox="0 0 75 75">
	<path d="M62.498 0h-49.997c-6.876 0-12.502 5.624-12.502 12.499v49.999c0 6.876 5.626 12.501 12.502 12.501h49.997c6.88 0 12.502-5.626 12.502-12.501v-49.999c0-6.876-5.621-12.499-12.502-12.499zM18.75 18.75h37.5c0.669 0 1.319 0.144 1.915 0.415l-20.665 24.109-20.665-24.109c0.596-0.271 1.246-0.415 1.915-0.415zM14.063 51.563v-28.125c0-0.098 0.004-0.196 0.010-0.293l13.745 16.036-13.594 13.594c-0.106-0.391-0.162-0.797-0.162-1.211zM56.25 56.25h-37.5c-0.414 0-0.82-0.056-1.211-0.162l13.339-13.339 6.623 7.727 6.623-7.727 13.339 13.339c-0.391 0.106-0.797 0.161-1.211 0.161zM60.938 51.563c0 0.414-0.056 0.82-0.162 1.211l-13.594-13.594 13.745-16.036c0.006 0.097 0.010 0.195 0.010 0.293v28.125z" fill="#007c88" />
</svg>
