<?xml version="1.0" encoding="utf-8"?>
<!-- Generated by IcoMoon.io -->
<!DOCTYPE svg PUBLIC "-//W3C//DTD SVG 1.1//EN" "http://www.w3.org/Graphics/SVG/1.1/DTD/svg11.dtd">
<svg version="1.1" xmlns="http://www.w3.org/2000/svg" xmlns:xlink="http://www.w3.org/1999/xlink" width="75" height="75" viewBox="0 0 75 75">
	<path d="M22.26 61.231c1.988 0 3.939-0.962 5.125-2.74 1.885-2.827 1.121-6.647-1.706-8.532l-4.839-3.226c0.828-0.226 1.699-0.348 2.598-0.348 5.449 0 9.865 4.417 9.865 9.866 0 5.449-4.417 9.866-9.866 9.866-5.303 0-9.627-4.184-9.855-9.432l5.27 3.513c1.049 0.699 2.234 1.034 3.407 1.034zM62.5 0c6.876 0 12.5 5.626 12.5 12.502v49.997c0 6.88-5.624 12.501-12.5 12.501h-49.999c-6.876 0-12.502-5.621-12.502-12.501v-14.87l8.887 5.924c-0.853 4.627 0.508 9.582 4.087 13.161 5.779 5.779 15.149 5.779 20.928 0 3.55-3.55 4.918-8.454 4.107-13.049l18.241-16.332c3.387-0.486 6.652-2.032 9.257-4.638 6.407-6.407 6.407-16.795 0-23.202-6.407-6.407-16.795-6.407-23.202 0-2.606 2.606-4.152 5.87-4.638 9.257v0l-14.992 22.722c-2.333 0.12-4.642 0.788-6.718 2.006l-15.957-10.638v-20.339c0-6.876 5.626-12.502 12.501-12.502h49.999zM65.625 21.094c0-6.472-5.247-11.719-11.719-11.719s-11.719 5.247-11.719 11.719 5.247 11.719 11.719 11.719 11.719-5.247 11.719-11.719zM46.875 21.094c0-3.883 3.148-7.031 7.031-7.031s7.031 3.148 7.031 7.031-3.148 7.031-7.031 7.031-7.031-3.148-7.031-7.031z" fill="#007c88" />
</svg>
