<?xml version="1.0" encoding="utf-8"?>
<!-- Generated by IcoMoon.io -->
<!DOCTYPE svg PUBLIC "-//W3C//DTD SVG 1.1//EN" "http://www.w3.org/Graphics/SVG/1.1/DTD/svg11.dtd">
<svg version="1.1" xmlns="http://www.w3.org/2000/svg" xmlns:xlink="http://www.w3.org/1999/xlink" width="75" height="75" viewBox="0 0 75 75">
	<path d="M62.501 0h-49.999c-6.876 0-12.501 5.626-12.501 12.502v49.997c0 6.88 5.626 12.502 12.501 12.502h49.999c6.876 0 12.499-5.621 12.499-12.502v-49.997c0-6.876-5.624-12.502-12.499-12.502zM61.381 25.037c0.024 0.538 0.036 1.079 0.036 1.622 0 16.568-12.394 35.674-35.058 35.674-6.958 0-13.435-2.076-18.888-5.634 0.964 0.116 1.945 0.175 2.939 0.175 5.773 0 11.086-2.005 15.303-5.367-5.392-0.101-9.942-3.726-11.51-8.707 0.752 0.146 1.524 0.225 2.318 0.225 1.124 0 2.212-0.154 3.246-0.44-5.637-1.152-9.884-6.219-9.884-12.294 0-0.053 0-0.105 0.001-0.158 1.661 0.939 3.561 1.503 5.581 1.568-3.306-2.248-5.482-6.086-5.482-10.436 0-2.298 0.607-4.452 1.668-6.303 6.077 7.586 15.156 12.577 25.397 13.1-0.21-0.918-0.319-1.875-0.319-2.857 0-6.924 5.517-12.538 12.322-12.538 3.544 0 6.747 1.522 8.994 3.959 2.807-0.562 5.444-1.605 7.825-3.043-0.92 2.928-2.874 5.385-5.417 6.937 2.492-0.303 4.867-0.977 7.077-1.974-1.651 2.514-3.74 4.722-6.148 6.49z" fill="#007c88" />
</svg>
